<svg width="200" height="200" viewBox="0 0 200 200" xmlns="http://www.w3.org/2000/svg">
  <!-- Background circle -->
  <circle cx="100" cy="100" r="95" fill="#f5f5f5" stroke="#FF5722" stroke-width="4" />
  
  <!-- Tanpura silhouette -->
  <path d="M80,30 C75,35 70,50 70,70 C70,90 75,140 80,170 C85,140 90,90 90,70 C90,50 85,35 80,30 Z" fill="#FF5722" />
  
  <!-- Sound waves -->
  <path d="M100,100 Q120,80 140,100 Q160,120 180,100" fill="none" stroke="#673AB7" stroke-width="3" />
  <path d="M100,85 Q125,65 150,85 Q175,105 200,85" fill="none" stroke="#673AB7" stroke-width="2" />
  <path d="M100,115 Q125,135 150,115 Q175,95 200,115" fill="none" stroke="#673AB7" stroke-width="2" />
  
  <!-- Musical notes -->
  <g transform="translate(30,100) scale(0.8)">
    <path d="M10,30 L10,10 L20,5 L30,10 L30,30 Z" fill="#3F51B5" />
    <rect x="8" y="30" width="4" height="35" fill="#3F51B5" />
    <rect x="28" y="30" width="4" height="40" fill="#3F51B5" />
    <ellipse cx="7" cy="65" rx="7" ry="5" fill="#3F51B5" />
    <ellipse cx="30" cy="70" rx="7" ry="5" fill="#3F51B5" />
  </g>
  
  <!-- Text -->
  <text x="100" y="190" font-family="Arial" font-size="16" font-weight="bold" text-anchor="middle" fill="#212121">RagaVani</text>
</svg>
