<?xml version="1.0" encoding="UTF-8" standalone="no"?>
<svg xmlns="http://www.w3.org/2000/svg" viewBox="0 0 200 200" width="200" height="200">
  <!-- Elegant background gradient -->
  <defs>
    <radialGradient id="bgGradient" cx="50%" cy="50%" r="75%" fx="50%" fy="50%">
      <stop offset="0%" stop-color="#8B4513" stop-opacity="0.1" />
      <stop offset="100%" stop-color="#800000" stop-opacity="0.3" />
    </radialGradient>
    
    <linearGradient id="goldGradient" x1="0%" y1="0%" x2="100%" y2="100%">
      <stop offset="0%" stop-color="#FFD700" />
      <stop offset="100%" stop-color="#DAA520" />
    </linearGradient>
    
    <filter id="glow" x="-20%" y="-20%" width="140%" height="140%">
      <feGaussianBlur stdDeviation="3" result="blur" />
      <feFlood flood-color="#FFD700" flood-opacity="0.3" result="color" />
      <feComposite in="color" in2="blur" operator="in" result="glow" />
      <feComposite in="SourceGraphic" in2="glow" operator="over" />
    </filter>
  </defs>
  
  <!-- Background circle -->
  <circle cx="100" cy="100" r="95" fill="url(#bgGradient)" stroke="#DAA520" stroke-width="2" />
  
  <!-- Main veena/sitar shape -->
  <path d="M75 40 C40 60, 40 140, 75 160 C110 140, 110 60, 75 40" 
        fill="#8B4513" stroke="#DAA520" stroke-width="2" />
  
  <!-- Decorative center line -->
  <line x1="75" y1="40" x2="75" y2="160" stroke="#DAA520" stroke-width="1.5" stroke-dasharray="2,2" />
  
  <!-- Strings -->
  <line x1="65" y1="42" x2="65" y2="158" stroke="#FFD700" stroke-width="1" />
  <line x1="70" y1="41" x2="70" y2="159" stroke="#FFD700" stroke-width="1" />
  <line x1="80" y1="41" x2="80" y2="159" stroke="#FFD700" stroke-width="1" />
  <line x1="85" y1="42" x2="85" y2="158" stroke="#FFD700" stroke-width="1" />
  
  <!-- Bridge at bottom -->
  <rect x="60" y="145" width="30" height="5" rx="2" fill="#800000" stroke="#DAA520" stroke-width="1" />
  
  <!-- Pegs at top -->
  <circle cx="65" cy="50" r="3" fill="#800000" stroke="#DAA520" stroke-width="1" />
  <circle cx="70" cy="48" r="3" fill="#800000" stroke="#DAA520" stroke-width="1" />
  <circle cx="80" cy="48" r="3" fill="#800000" stroke="#DAA520" stroke-width="1" />
  <circle cx="85" cy="50" r="3" fill="#800000" stroke="#DAA520" stroke-width="1" />
  
  <!-- Tanpura body curve on right -->
  <path d="M75 160 C90 170, 130 170, 150 120 C165 80, 130 50, 75 40" 
        fill="#8B4513" stroke="#DAA520" stroke-width="1.5" />
  
  <!-- Musical note symbols -->
  <g filter="url(#glow)">
    <path d="M135 70 C137 68, 140 70, 138 72 L130 85 C128 90, 125 88, 127 83 Z" fill="url(#goldGradient)" />
    <path d="M145 90 C147 88, 150 90, 148 92 L140 105 C138 110, 135 108, 137 103 Z" fill="url(#goldGradient)" />
    <path d="M125 100 C127 98, 130 100, 128 102 L120 115 C118 120, 115 118, 117 113 Z" fill="url(#goldGradient)" />
  </g>
  
  <!-- Decorative Om symbol -->
  <g transform="translate(110, 95) scale(0.22)" filter="url(#glow)">
    <path d="M99.5,18.2c-45,0-81.5,36.5-81.5,81.5c0,45,36.5,81.5,81.5,81.5c45,0,81.5-36.5,81.5-81.5C181,54.7,144.5,18.2,99.5,18.2z
           M149.3,93.4c-1.4,6.2-3.4,11.5-6,15.8c-2.6,4.3-5.7,7.7-9.3,10.1c-3.6,2.4-7.7,4-12.4,4.6v20.9c0,1.3-0.5,2.5-1.4,3.4
           c-0.9,0.9-2.1,1.4-3.4,1.4c-1.3,0-2.5-0.5-3.4-1.4c-0.9-0.9-1.4-2.1-1.4-3.4v-20.3c-4.3-0.4-8.1-1.6-11.5-3.6
           c-3.4-2-6.4-4.6-8.9-7.9c-2.6-3.3-4.6-7.2-6-11.7c-1.4-4.5-2.2-9.5-2.2-14.8c0-5.5,0.8-10.5,2.3-15.1c1.5-4.6,3.7-8.6,6.5-12
           c2.8-3.4,6.2-6,10.1-7.9c3.9-1.9,8.3-2.9,13.2-2.9c5.4,0,10.1,1,14.2,3.1c4.1,2.1,7.5,4.9,10.3,8.5c2.8,3.6,4.8,7.9,6.2,12.8
           c1.4,4.9,2.1,10.2,2.1,16C150.3,84.3,150,87.2,149.3,93.4z" 
          fill="url(#goldGradient)" />
  </g>
  
  <!-- Decorative border -->
  <circle cx="100" cy="100" r="95" fill="none" stroke="url(#goldGradient)" stroke-width="3" stroke-dasharray="3,3" />
</svg>