<?xml version="1.0" encoding="UTF-8" standalone="no"?>
<svg xmlns="http://www.w3.org/2000/svg" width="300" height="600" viewBox="0 0 300 600">
  <!-- Main body (tumba) -->
  <ellipse cx="150" cy="450" rx="100" ry="120" fill="#cd7f32" stroke="#8b4513" stroke-width="2.5"/>
  
  <!-- Sound hole -->
  <ellipse cx="150" cy="450" rx="35" ry="40" fill="#3a2410" stroke="#2a1a0a" stroke-width="1.5"/>
  
  <!-- Top resonator (small tumba) -->
  <ellipse cx="150" cy="170" rx="35" ry="45" fill="#cd7f32" stroke="#8b4513" stroke-width="2"/>
  
  <!-- Neck (dand) -->
  <path d="M130,50 L140,170 L160,170 L170,50 Z" fill="#8b4513" stroke="#5e2605" stroke-width="1"/>
  <path d="M140,170 L120,450 L180,450 L160,170 Z" fill="#8b4513" stroke="#5e2605" stroke-width="1"/>
  
  <!-- Headstock -->
  <path d="M130,50 C130,35 150,20 170,50" fill="#3a2410" stroke="#2a1a0a" stroke-width="1.5"/>
  
  <!-- Tuning pegs -->
  <circle cx="135" cy="40" r="5" fill="#3a2410" stroke="#2a1a0a" stroke-width="1"/>
  <circle cx="145" cy="35" r="5" fill="#3a2410" stroke="#2a1a0a" stroke-width="1"/>
  <circle cx="155" cy="35" r="5" fill="#3a2410" stroke="#2a1a0a" stroke-width="1"/>
  <circle cx="165" cy="40" r="5" fill="#3a2410" stroke="#2a1a0a" stroke-width="1"/>
  
  <!-- Bridge (jawari) -->
  <rect x="130" y="380" width="40" height="10" rx="2" ry="2" fill="#f0e6d2" stroke="#3a2410" stroke-width="1"/>
  
  <!-- Strings -->
  <line x1="138" y1="40" x2="138" y2="530" stroke="#f5f5dc" stroke-width="0.8"/>
  <line x1="144" y1="35" x2="144" y2="530" stroke="#f5f5dc" stroke-width="0.8"/>
  <line x1="150" y1="35" x2="150" y2="530" stroke="#f5f5dc" stroke-width="0.8"/>
  <line x1="156" y1="35" x2="156" y2="530" stroke="#f5f5dc" stroke-width="0.8"/>
  <line x1="162" y1="40" x2="162" y2="530" stroke="#f5f5dc" stroke-width="0.8"/>
  
  <!-- Frets (parda) -->
  <rect x="125" y="200" width="50" height="3" rx="1.5" ry="1.5" fill="#f0e6d2" stroke="#3a2410" stroke-width="0.5"/>
  <rect x="126" y="230" width="48" height="3" rx="1.5" ry="1.5" fill="#f0e6d2" stroke="#3a2410" stroke-width="0.5"/>
  <rect x="127" y="260" width="46" height="3" rx="1.5" ry="1.5" fill="#f0e6d2" stroke="#3a2410" stroke-width="0.5"/>
  <rect x="128" y="290" width="44" height="3" rx="1.5" ry="1.5" fill="#f0e6d2" stroke="#3a2410" stroke-width="0.5"/>
  <rect x="129" y="320" width="42" height="3" rx="1.5" ry="1.5" fill="#f0e6d2" stroke="#3a2410" stroke-width="0.5"/>
  <rect x="130" y="350" width="40" height="3" rx="1.5" ry="1.5" fill="#f0e6d2" stroke="#3a2410" stroke-width="0.5"/>
  
  <!-- Sympathetic strings -->
  <line x1="175" y1="200" x2="175" y2="380" stroke="#f5f5dc" stroke-width="0.5"/>
  <line x1="178" y1="200" x2="178" y2="380" stroke="#f5f5dc" stroke-width="0.5"/>
  <line x1="181" y1="200" x2="181" y2="380" stroke="#f5f5dc" stroke-width="0.5"/>
  <line x1="125" y1="200" x2="125" y2="380" stroke="#f5f5dc" stroke-width="0.5"/>
  <line x1="122" y1="200" x2="122" y2="380" stroke="#f5f5dc" stroke-width="0.5"/>
  <line x1="119" y1="200" x2="119" y2="380" stroke="#f5f5dc" stroke-width="0.5"/>
</svg>