<?xml version="1.0" encoding="UTF-8" standalone="no"?>
<svg xmlns="http://www.w3.org/2000/svg" width="200" height="500" viewBox="0 0 200 500">
  <!-- Tanpura Body -->
  <ellipse cx="100" cy="400" rx="80" ry="90" fill="#cd7f32" stroke="#8b4513" stroke-width="2"/>
  
  <!-- Sound hole -->
  <circle cx="100" cy="400" r="30" fill="#3a2410" stroke="#8b4513" stroke-width="1.5"/>
  
  <!-- Neck -->
  <rect x="92" y="100" width="16" height="300" fill="#8b4513" stroke="#5e2605" stroke-width="1"/>
  
  <!-- Head -->
  <rect x="80" y="50" width="40" height="50" fill="#8b4513" stroke="#5e2605" stroke-width="1.5"/>
  
  <!-- Tuning pegs -->
  <rect x="72" y="60" width="25" height="8" fill="#3a2410" stroke="#2a1a0a" stroke-width="1" transform="rotate(-10, 72, 60)"/>
  <rect x="72" y="75" width="25" height="8" fill="#3a2410" stroke="#2a1a0a" stroke-width="1" transform="rotate(-10, 72, 75)"/>
  <rect x="102" y="60" width="25" height="8" fill="#3a2410" stroke="#2a1a0a" stroke-width="1" transform="rotate(10, 102, 60)"/>
  <rect x="102" y="75" width="25" height="8" fill="#3a2410" stroke="#2a1a0a" stroke-width="1" transform="rotate(10, 102, 75)"/>
  
  <!-- Strings -->
  <line x1="97" y1="50" x2="97" y2="470" stroke="#f5f5dc" stroke-width="1"/>
  <line x1="100" y1="50" x2="100" y2="470" stroke="#f5f5dc" stroke-width="1"/>
  <line x1="103" y1="50" x2="103" y2="470" stroke="#f5f5dc" stroke-width="1"/>
  <line x1="106" y1="50" x2="106" y2="470" stroke="#f5f5dc" stroke-width="1"/>
  
  <!-- Bridge -->
  <rect x="90" y="300" width="20" height="5" fill="#f0e6d2" stroke="#3a2410" stroke-width="0.5"/>
</svg>